<mxfile host="app.diagrams.net" agent="Mozilla/5.0 (Windows NT 10.0; Win64; x64; rv:136.0) Gecko/20100101 Firefox/136.0" version="26.1.0">
  <diagram name="Page-1" id="Jj6qbz40t1jjQP04pquI">
    <mxGraphModel dx="1024" dy="559" grid="1" gridSize="10" guides="1" tooltips="1" connect="1" arrows="1" fold="1" page="1" pageScale="1" pageWidth="827" pageHeight="1169" math="0" shadow="0">
      <root>
        <mxCell id="0" />
        <mxCell id="1" parent="0" />
        <mxCell id="l5cH-51S8H6WIqmNIrk8-50" value="" style="group" vertex="1" connectable="0" parent="1">
          <mxGeometry x="30" y="100" width="260" height="238" as="geometry" />
        </mxCell>
        <mxCell id="l5cH-51S8H6WIqmNIrk8-1" value="" style="verticalLabelPosition=bottom;verticalAlign=top;html=1;shape=mxgraph.basic.acute_triangle;dx=0.5;" vertex="1" parent="l5cH-51S8H6WIqmNIrk8-50">
          <mxGeometry width="222.85714285714286" height="215.63758389261744" as="geometry" />
        </mxCell>
        <mxCell id="l5cH-51S8H6WIqmNIrk8-3" value="" style="endArrow=none;html=1;rounded=0;entryX=0.919;entryY=0.854;entryDx=0;entryDy=0;entryPerimeter=0;exitX=0.067;exitY=0.857;exitDx=0;exitDy=0;exitPerimeter=0;" edge="1" parent="l5cH-51S8H6WIqmNIrk8-50">
          <mxGeometry width="50" height="50" relative="1" as="geometry">
            <mxPoint x="16.491428571428585" y="184.80140939597314" as="sourcePoint" />
            <mxPoint x="206.36571428571438" y="184.15449664429522" as="targetPoint" />
          </mxGeometry>
        </mxCell>
        <mxCell id="l5cH-51S8H6WIqmNIrk8-4" value="" style="endArrow=none;html=1;rounded=0;entryX=0.846;entryY=0.703;entryDx=0;entryDy=0;entryPerimeter=0;exitX=0.15;exitY=0.701;exitDx=0;exitDy=0;exitPerimeter=0;" edge="1" parent="l5cH-51S8H6WIqmNIrk8-50" source="l5cH-51S8H6WIqmNIrk8-1" target="l5cH-51S8H6WIqmNIrk8-1">
          <mxGeometry width="50" height="50" relative="1" as="geometry">
            <mxPoint x="37.142857142857146" y="151.74496644295303" as="sourcePoint" />
            <mxPoint x="185.71428571428575" y="151.74496644295303" as="targetPoint" />
          </mxGeometry>
        </mxCell>
        <mxCell id="l5cH-51S8H6WIqmNIrk8-5" value="" style="endArrow=none;html=1;rounded=0;exitX=0.223;exitY=0.552;exitDx=0;exitDy=0;exitPerimeter=0;entryX=0.776;entryY=0.555;entryDx=0;entryDy=0;entryPerimeter=0;" edge="1" parent="l5cH-51S8H6WIqmNIrk8-50" source="l5cH-51S8H6WIqmNIrk8-1" target="l5cH-51S8H6WIqmNIrk8-1">
          <mxGeometry width="50" height="50" relative="1" as="geometry">
            <mxPoint x="52.00000000000001" y="119.79865771812081" as="sourcePoint" />
            <mxPoint x="170.85714285714286" y="119.79865771812081" as="targetPoint" />
          </mxGeometry>
        </mxCell>
        <mxCell id="l5cH-51S8H6WIqmNIrk8-6" value="" style="endArrow=none;html=1;rounded=0;exitX=0.319;exitY=0.369;exitDx=0;exitDy=0;exitPerimeter=0;entryX=0.68;entryY=0.367;entryDx=0;entryDy=0;entryPerimeter=0;" edge="1" parent="l5cH-51S8H6WIqmNIrk8-50" source="l5cH-51S8H6WIqmNIrk8-1" target="l5cH-51S8H6WIqmNIrk8-1">
          <mxGeometry width="50" height="50" relative="1" as="geometry">
            <mxPoint x="74.28571428571429" y="79.86577181208052" as="sourcePoint" />
            <mxPoint x="148.57142857142858" y="79.86577181208052" as="targetPoint" />
          </mxGeometry>
        </mxCell>
        <mxCell id="l5cH-51S8H6WIqmNIrk8-8" value="Besoins physiologiques" style="text;html=1;align=center;verticalAlign=middle;whiteSpace=wrap;rounded=0;" vertex="1" parent="l5cH-51S8H6WIqmNIrk8-50">
          <mxGeometry x="52.00000000000001" y="183.69127516778522" width="133.71428571428572" height="31.94630872483221" as="geometry" />
        </mxCell>
        <mxCell id="l5cH-51S8H6WIqmNIrk8-9" value="Sécurité" style="text;html=1;align=center;verticalAlign=middle;whiteSpace=wrap;rounded=0;" vertex="1" parent="l5cH-51S8H6WIqmNIrk8-50">
          <mxGeometry x="44.57142857142858" y="151.74496644295303" width="133.71428571428572" height="31.94630872483221" as="geometry" />
        </mxCell>
        <mxCell id="l5cH-51S8H6WIqmNIrk8-10" value="Appartenance" style="text;html=1;align=center;verticalAlign=middle;whiteSpace=wrap;rounded=0;" vertex="1" parent="l5cH-51S8H6WIqmNIrk8-50">
          <mxGeometry x="44.57142857142858" y="119.79865771812081" width="133.71428571428572" height="31.94630872483221" as="geometry" />
        </mxCell>
        <mxCell id="l5cH-51S8H6WIqmNIrk8-11" value="Estime" style="text;html=1;align=center;verticalAlign=middle;whiteSpace=wrap;rounded=0;" vertex="1" parent="l5cH-51S8H6WIqmNIrk8-50">
          <mxGeometry x="44.57142857142858" y="79.86577181208052" width="133.71428571428572" height="39.93288590604026" as="geometry" />
        </mxCell>
        <mxCell id="l5cH-51S8H6WIqmNIrk8-12" value="Accomplissement de soi " style="text;html=1;align=center;verticalAlign=middle;whiteSpace=wrap;rounded=0;fontSize=8;" vertex="1" parent="l5cH-51S8H6WIqmNIrk8-50">
          <mxGeometry x="81.71428571428572" y="39.93288590604026" width="59.42857142857144" height="39.93288590604026" as="geometry" />
        </mxCell>
        <mxCell id="l5cH-51S8H6WIqmNIrk8-14" value="70%" style="rounded=0;whiteSpace=wrap;html=1;fontSize=8;" vertex="1" parent="l5cH-51S8H6WIqmNIrk8-50">
          <mxGeometry x="240" y="191.68" width="20" height="15.97" as="geometry" />
        </mxCell>
        <mxCell id="l5cH-51S8H6WIqmNIrk8-15" value="80%" style="rounded=0;whiteSpace=wrap;html=1;fontSize=8;" vertex="1" parent="l5cH-51S8H6WIqmNIrk8-50">
          <mxGeometry x="240" y="159.73" width="20" height="15.97" as="geometry" />
        </mxCell>
        <mxCell id="l5cH-51S8H6WIqmNIrk8-16" value="80%" style="rounded=0;whiteSpace=wrap;html=1;fontSize=8;" vertex="1" parent="l5cH-51S8H6WIqmNIrk8-50">
          <mxGeometry x="240" y="127.79" width="20" height="15.97" as="geometry" />
        </mxCell>
        <mxCell id="l5cH-51S8H6WIqmNIrk8-17" value="50%" style="rounded=0;whiteSpace=wrap;html=1;fontSize=8;" vertex="1" parent="l5cH-51S8H6WIqmNIrk8-50">
          <mxGeometry x="240" y="91.85" width="20" height="15.97" as="geometry" />
        </mxCell>
        <mxCell id="l5cH-51S8H6WIqmNIrk8-18" value="50%" style="rounded=0;whiteSpace=wrap;html=1;fontSize=8;" vertex="1" parent="l5cH-51S8H6WIqmNIrk8-50">
          <mxGeometry x="240" y="51.91" width="20" height="15.97" as="geometry" />
        </mxCell>
        <mxCell id="l5cH-51S8H6WIqmNIrk8-19" value="Alice" style="text;html=1;align=center;verticalAlign=middle;resizable=0;points=[];autosize=1;strokeColor=none;fillColor=none;" vertex="1" parent="l5cH-51S8H6WIqmNIrk8-50">
          <mxGeometry x="85.42857142857143" y="214.04026845637583" width="50" height="30" as="geometry" />
        </mxCell>
        <mxCell id="l5cH-51S8H6WIqmNIrk8-51" value="" style="group" vertex="1" connectable="0" parent="1">
          <mxGeometry x="310" y="80" width="260" height="258" as="geometry" />
        </mxCell>
        <mxCell id="l5cH-51S8H6WIqmNIrk8-52" value="" style="verticalLabelPosition=bottom;verticalAlign=top;html=1;shape=mxgraph.basic.acute_triangle;dx=0.5;" vertex="1" parent="l5cH-51S8H6WIqmNIrk8-51">
          <mxGeometry width="222.85714285714283" height="233.75838926174498" as="geometry" />
        </mxCell>
        <mxCell id="l5cH-51S8H6WIqmNIrk8-53" value="" style="endArrow=none;html=1;rounded=0;entryX=0.919;entryY=0.854;entryDx=0;entryDy=0;entryPerimeter=0;exitX=0.067;exitY=0.857;exitDx=0;exitDy=0;exitPerimeter=0;" edge="1" parent="l5cH-51S8H6WIqmNIrk8-51">
          <mxGeometry width="50" height="50" relative="1" as="geometry">
            <mxPoint x="16.491428571428585" y="200.33093959731542" as="sourcePoint" />
            <mxPoint x="206.36571428571432" y="199.62966442953012" as="targetPoint" />
          </mxGeometry>
        </mxCell>
        <mxCell id="l5cH-51S8H6WIqmNIrk8-54" value="" style="endArrow=none;html=1;rounded=0;entryX=0.846;entryY=0.703;entryDx=0;entryDy=0;entryPerimeter=0;exitX=0.15;exitY=0.701;exitDx=0;exitDy=0;exitPerimeter=0;" edge="1" parent="l5cH-51S8H6WIqmNIrk8-51" source="l5cH-51S8H6WIqmNIrk8-52" target="l5cH-51S8H6WIqmNIrk8-52">
          <mxGeometry width="50" height="50" relative="1" as="geometry">
            <mxPoint x="37.14285714285714" y="164.49664429530202" as="sourcePoint" />
            <mxPoint x="185.71428571428572" y="164.49664429530202" as="targetPoint" />
          </mxGeometry>
        </mxCell>
        <mxCell id="l5cH-51S8H6WIqmNIrk8-55" value="" style="endArrow=none;html=1;rounded=0;exitX=0.223;exitY=0.552;exitDx=0;exitDy=0;exitPerimeter=0;entryX=0.776;entryY=0.555;entryDx=0;entryDy=0;entryPerimeter=0;" edge="1" parent="l5cH-51S8H6WIqmNIrk8-51" source="l5cH-51S8H6WIqmNIrk8-52" target="l5cH-51S8H6WIqmNIrk8-52">
          <mxGeometry width="50" height="50" relative="1" as="geometry">
            <mxPoint x="52" y="129.86577181208054" as="sourcePoint" />
            <mxPoint x="170.85714285714286" y="129.86577181208054" as="targetPoint" />
          </mxGeometry>
        </mxCell>
        <mxCell id="l5cH-51S8H6WIqmNIrk8-56" value="" style="endArrow=none;html=1;rounded=0;exitX=0.319;exitY=0.369;exitDx=0;exitDy=0;exitPerimeter=0;entryX=0.68;entryY=0.367;entryDx=0;entryDy=0;entryPerimeter=0;" edge="1" parent="l5cH-51S8H6WIqmNIrk8-51" source="l5cH-51S8H6WIqmNIrk8-52" target="l5cH-51S8H6WIqmNIrk8-52">
          <mxGeometry width="50" height="50" relative="1" as="geometry">
            <mxPoint x="74.28571428571428" y="86.5771812080537" as="sourcePoint" />
            <mxPoint x="148.57142857142856" y="86.5771812080537" as="targetPoint" />
          </mxGeometry>
        </mxCell>
        <mxCell id="l5cH-51S8H6WIqmNIrk8-57" value="Besoins physiologiques" style="text;html=1;align=center;verticalAlign=middle;whiteSpace=wrap;rounded=0;" vertex="1" parent="l5cH-51S8H6WIqmNIrk8-51">
          <mxGeometry x="52" y="199.1275167785235" width="133.71428571428572" height="34.63087248322148" as="geometry" />
        </mxCell>
        <mxCell id="l5cH-51S8H6WIqmNIrk8-58" value="Sécurité" style="text;html=1;align=center;verticalAlign=middle;whiteSpace=wrap;rounded=0;" vertex="1" parent="l5cH-51S8H6WIqmNIrk8-51">
          <mxGeometry x="44.57142857142857" y="164.49664429530202" width="133.71428571428572" height="34.63087248322148" as="geometry" />
        </mxCell>
        <mxCell id="l5cH-51S8H6WIqmNIrk8-59" value="Appartenance" style="text;html=1;align=center;verticalAlign=middle;whiteSpace=wrap;rounded=0;" vertex="1" parent="l5cH-51S8H6WIqmNIrk8-51">
          <mxGeometry x="44.57142857142857" y="129.86577181208054" width="133.71428571428572" height="34.63087248322148" as="geometry" />
        </mxCell>
        <mxCell id="l5cH-51S8H6WIqmNIrk8-60" value="Estime" style="text;html=1;align=center;verticalAlign=middle;whiteSpace=wrap;rounded=0;" vertex="1" parent="l5cH-51S8H6WIqmNIrk8-51">
          <mxGeometry x="44.57142857142857" y="86.5771812080537" width="133.71428571428572" height="43.28859060402685" as="geometry" />
        </mxCell>
        <mxCell id="l5cH-51S8H6WIqmNIrk8-61" value="Accomplissement de soi " style="text;html=1;align=center;verticalAlign=middle;whiteSpace=wrap;rounded=0;fontSize=8;" vertex="1" parent="l5cH-51S8H6WIqmNIrk8-51">
          <mxGeometry x="81.71428571428571" y="43.28859060402685" width="59.42857142857143" height="43.28859060402685" as="geometry" />
        </mxCell>
        <mxCell id="l5cH-51S8H6WIqmNIrk8-62" value="50%" style="rounded=0;whiteSpace=wrap;html=1;fontSize=8;" vertex="1" parent="l5cH-51S8H6WIqmNIrk8-51">
          <mxGeometry x="240" y="207.79" width="20" height="17.32" as="geometry" />
        </mxCell>
        <mxCell id="l5cH-51S8H6WIqmNIrk8-63" value="80%" style="rounded=0;whiteSpace=wrap;html=1;fontSize=8;" vertex="1" parent="l5cH-51S8H6WIqmNIrk8-51">
          <mxGeometry x="240" y="173.15" width="20" height="17.32" as="geometry" />
        </mxCell>
        <mxCell id="l5cH-51S8H6WIqmNIrk8-64" value="60%" style="rounded=0;whiteSpace=wrap;html=1;fontSize=8;" vertex="1" parent="l5cH-51S8H6WIqmNIrk8-51">
          <mxGeometry x="240" y="138.52" width="20" height="17.32" as="geometry" />
        </mxCell>
        <mxCell id="l5cH-51S8H6WIqmNIrk8-65" value="70%" style="rounded=0;whiteSpace=wrap;html=1;fontSize=8;" vertex="1" parent="l5cH-51S8H6WIqmNIrk8-51">
          <mxGeometry x="240" y="99.56" width="20" height="17.32" as="geometry" />
        </mxCell>
        <mxCell id="l5cH-51S8H6WIqmNIrk8-66" value="70%" style="rounded=0;whiteSpace=wrap;html=1;fontSize=8;" vertex="1" parent="l5cH-51S8H6WIqmNIrk8-51">
          <mxGeometry x="240" y="60" width="20" height="13.59" as="geometry" />
        </mxCell>
        <mxCell id="l5cH-51S8H6WIqmNIrk8-67" value="Gaby" style="text;html=1;align=center;verticalAlign=middle;resizable=0;points=[];autosize=1;strokeColor=none;fillColor=none;" vertex="1" parent="l5cH-51S8H6WIqmNIrk8-51">
          <mxGeometry x="85.42857142857143" y="232.0268456375839" width="50" height="30" as="geometry" />
        </mxCell>
        <mxCell id="l5cH-51S8H6WIqmNIrk8-68" value="" style="group" vertex="1" connectable="0" parent="1">
          <mxGeometry x="600" y="90" width="280" height="248" as="geometry" />
        </mxCell>
        <mxCell id="l5cH-51S8H6WIqmNIrk8-69" value="" style="verticalLabelPosition=bottom;verticalAlign=top;html=1;shape=mxgraph.basic.acute_triangle;dx=0.5;" vertex="1" parent="l5cH-51S8H6WIqmNIrk8-68">
          <mxGeometry width="239.99999999999997" height="224.6979865771812" as="geometry" />
        </mxCell>
        <mxCell id="l5cH-51S8H6WIqmNIrk8-70" value="" style="endArrow=none;html=1;rounded=0;entryX=0.919;entryY=0.854;entryDx=0;entryDy=0;entryPerimeter=0;exitX=0.067;exitY=0.857;exitDx=0;exitDy=0;exitPerimeter=0;" edge="1" parent="l5cH-51S8H6WIqmNIrk8-68">
          <mxGeometry width="50" height="50" relative="1" as="geometry">
            <mxPoint x="17.76000000000001" y="192.56617449664432" as="sourcePoint" />
            <mxPoint x="222.24000000000004" y="191.8920805369127" as="targetPoint" />
          </mxGeometry>
        </mxCell>
        <mxCell id="l5cH-51S8H6WIqmNIrk8-71" value="" style="endArrow=none;html=1;rounded=0;entryX=0.846;entryY=0.703;entryDx=0;entryDy=0;entryPerimeter=0;exitX=0.15;exitY=0.701;exitDx=0;exitDy=0;exitPerimeter=0;" edge="1" parent="l5cH-51S8H6WIqmNIrk8-68" source="l5cH-51S8H6WIqmNIrk8-69" target="l5cH-51S8H6WIqmNIrk8-69">
          <mxGeometry width="50" height="50" relative="1" as="geometry">
            <mxPoint x="39.99999999999999" y="158.1208053691275" as="sourcePoint" />
            <mxPoint x="199.99999999999997" y="158.1208053691275" as="targetPoint" />
          </mxGeometry>
        </mxCell>
        <mxCell id="l5cH-51S8H6WIqmNIrk8-72" value="" style="endArrow=none;html=1;rounded=0;exitX=0.223;exitY=0.552;exitDx=0;exitDy=0;exitPerimeter=0;entryX=0.776;entryY=0.555;entryDx=0;entryDy=0;entryPerimeter=0;" edge="1" parent="l5cH-51S8H6WIqmNIrk8-68" source="l5cH-51S8H6WIqmNIrk8-69" target="l5cH-51S8H6WIqmNIrk8-69">
          <mxGeometry width="50" height="50" relative="1" as="geometry">
            <mxPoint x="55.99999999999999" y="124.83221476510067" as="sourcePoint" />
            <mxPoint x="184" y="124.83221476510067" as="targetPoint" />
          </mxGeometry>
        </mxCell>
        <mxCell id="l5cH-51S8H6WIqmNIrk8-73" value="" style="endArrow=none;html=1;rounded=0;exitX=0.319;exitY=0.369;exitDx=0;exitDy=0;exitPerimeter=0;entryX=0.68;entryY=0.367;entryDx=0;entryDy=0;entryPerimeter=0;" edge="1" parent="l5cH-51S8H6WIqmNIrk8-68" source="l5cH-51S8H6WIqmNIrk8-69" target="l5cH-51S8H6WIqmNIrk8-69">
          <mxGeometry width="50" height="50" relative="1" as="geometry">
            <mxPoint x="79.99999999999999" y="83.22147651006712" as="sourcePoint" />
            <mxPoint x="159.99999999999997" y="83.22147651006712" as="targetPoint" />
          </mxGeometry>
        </mxCell>
        <mxCell id="l5cH-51S8H6WIqmNIrk8-74" value="Besoins physiologiques" style="text;html=1;align=center;verticalAlign=middle;whiteSpace=wrap;rounded=0;" vertex="1" parent="l5cH-51S8H6WIqmNIrk8-68">
          <mxGeometry x="55.99999999999999" y="191.4093959731544" width="144" height="33.288590604026844" as="geometry" />
        </mxCell>
        <mxCell id="l5cH-51S8H6WIqmNIrk8-75" value="Sécurité" style="text;html=1;align=center;verticalAlign=middle;whiteSpace=wrap;rounded=0;" vertex="1" parent="l5cH-51S8H6WIqmNIrk8-68">
          <mxGeometry x="47.99999999999999" y="158.1208053691275" width="144" height="33.288590604026844" as="geometry" />
        </mxCell>
        <mxCell id="l5cH-51S8H6WIqmNIrk8-76" value="Appartenance" style="text;html=1;align=center;verticalAlign=middle;whiteSpace=wrap;rounded=0;" vertex="1" parent="l5cH-51S8H6WIqmNIrk8-68">
          <mxGeometry x="47.99999999999999" y="124.83221476510067" width="144" height="33.288590604026844" as="geometry" />
        </mxCell>
        <mxCell id="l5cH-51S8H6WIqmNIrk8-77" value="Estime" style="text;html=1;align=center;verticalAlign=middle;whiteSpace=wrap;rounded=0;" vertex="1" parent="l5cH-51S8H6WIqmNIrk8-68">
          <mxGeometry x="47.99999999999999" y="83.22147651006712" width="144" height="41.61073825503356" as="geometry" />
        </mxCell>
        <mxCell id="l5cH-51S8H6WIqmNIrk8-78" value="Accomplissement de soi " style="text;html=1;align=center;verticalAlign=middle;whiteSpace=wrap;rounded=0;fontSize=8;" vertex="1" parent="l5cH-51S8H6WIqmNIrk8-68">
          <mxGeometry x="87.99999999999999" y="41.61073825503356" width="63.99999999999999" height="41.61073825503356" as="geometry" />
        </mxCell>
        <mxCell id="l5cH-51S8H6WIqmNIrk8-79" value="67%" style="rounded=0;whiteSpace=wrap;html=1;fontSize=8;" vertex="1" parent="l5cH-51S8H6WIqmNIrk8-68">
          <mxGeometry x="260" y="199.73" width="20" height="16.64" as="geometry" />
        </mxCell>
        <mxCell id="l5cH-51S8H6WIqmNIrk8-80" value="75%" style="rounded=0;whiteSpace=wrap;html=1;fontSize=8;" vertex="1" parent="l5cH-51S8H6WIqmNIrk8-68">
          <mxGeometry x="260" y="166.44" width="20" height="16.64" as="geometry" />
        </mxCell>
        <mxCell id="l5cH-51S8H6WIqmNIrk8-81" value="90%" style="rounded=0;whiteSpace=wrap;html=1;fontSize=8;" vertex="1" parent="l5cH-51S8H6WIqmNIrk8-68">
          <mxGeometry x="260" y="133.15" width="20" height="16.64" as="geometry" />
        </mxCell>
        <mxCell id="l5cH-51S8H6WIqmNIrk8-82" value="70%" style="rounded=0;whiteSpace=wrap;html=1;fontSize=8;" vertex="1" parent="l5cH-51S8H6WIqmNIrk8-68">
          <mxGeometry x="260" y="95.7" width="20" height="16.64" as="geometry" />
        </mxCell>
        <mxCell id="l5cH-51S8H6WIqmNIrk8-83" value="30%" style="rounded=0;whiteSpace=wrap;html=1;fontSize=8;" vertex="1" parent="l5cH-51S8H6WIqmNIrk8-68">
          <mxGeometry x="260" y="54.09" width="20" height="16.64" as="geometry" />
        </mxCell>
        <mxCell id="l5cH-51S8H6WIqmNIrk8-84" value="Harry" style="text;html=1;align=center;verticalAlign=middle;resizable=0;points=[];autosize=1;strokeColor=none;fillColor=none;" vertex="1" parent="l5cH-51S8H6WIqmNIrk8-68">
          <mxGeometry x="92" y="223.03355704697987" width="50" height="30" as="geometry" />
        </mxCell>
      </root>
    </mxGraphModel>
  </diagram>
</mxfile>
